<?xml version="1.0" encoding="utf-8"?>
<svg version="1.1" x="0px" y="0px" viewBox="-887.9656372070312 476 114.11956787109375 127.70135498046875" enable-background="new -895 476 129 129" xmlns="http://www.w3.org/2000/svg">
  <g>
    <path d="M-776,476h-110c-1.1,0-2,0.9-2,2v16c0,1.1,0.9,2,2,2h6v90v16c0,1.1,0.9,2,2,2h16c1.1,0,2-0.9,2-2v-14h60v14   c0,1.1,0.9,2,2,2h16c1.1,0,2-0.9,2-2v-16v-90h4c1.1,0,2-0.9,2-2v-16C-774,476.9-774.9,476-776,476z M-862,584h-14v-88h44v88H-862z    M-864,600h-12v-12h12V600z M-784,600h-12v-12h12V600z M-784,584h-14h-30v-88h44V584z M-778,492h-4h-96h-6v-12h106V492z"/>
    <path d="M-814,550c1.1,0,2-0.9,2-2v-16c0-1.1-0.9-2-2-2s-2,0.9-2,2v16C-816,549.1-815.1,550-814,550z"/>
    <path d="M-846,530c-1.1,0-2,0.9-2,2v16c0,1.1,0.9,2,2,2s2-0.9,2-2v-16C-844,530.9-844.9,530-846,530z"/>
  </g>
</svg>