<?xml version="1.0" encoding="utf-8"?>
<svg version="1.1" x="0px" y="0px" viewBox="5.453020095825195 10.906039670109749 86.78691101074219 76.76175360381603" style="enable-background:new 0 0 100 100;" xmlns="http://www.w3.org/2000/svg">
  <g transform="matrix(1.04053, 0, 0, 1.019084, -4.699196, -0.944657)">
    <path d="M74,58.1c-1.9-2.5-4.8-4.1-8.2-4.1c-5.6,0-10.2,4.6-10.2,10.2v2.2c0,4.4,3,9.1,8.9,14.2c4.2,3.6,8.3,6,8.5,6.1   c0.3,0.2,0.7,0.3,1,0.3s0.7-0.1,1-0.3c0.2-0.1,4.3-2.5,8.5-6.1c5.9-5.1,8.9-9.8,8.9-14.2v-2.2c0-5.6-4.6-10.2-10.2-10.2   C78.8,54,75.9,55.6,74,58.1z M88.4,64.2v2.2c0,6-9.6,13.2-14.4,16.2c-4.8-3-14.4-10.3-14.4-16.2v-2.2c0-3.4,2.8-6.2,6.2-6.2   c3.4,0,6.2,2.8,6.2,6.2c0,1.1,0.9,2,2,2s2-0.9,2-2c0-3.4,2.8-6.2,6.2-6.2C85.6,58,88.4,60.8,88.4,64.2z"/>
    <path d="M12,69h12l0.2,10.3c0,0.8,0.5,1.4,1.1,1.8c0.3,0.1,0.6,0.2,0.9,0.2c0.4,0,0.9-0.1,1.2-0.4L42.7,69H49c1.1,0,2-0.9,2-2   s-0.9-2-2-2h-7c-0.4,0-0.9,0.1-1.2,0.4l-12.6,9.8L28,67c0-1.1-0.9-2-2-2H14V16h70v32.1c0,1.1,0.9,2,2,2s2-0.9,2-2V14   c0-1.1-0.9-2-2-2H12c-1.1,0-2,0.9-2,2v53C10,68.1,10.9,69,12,69z"/>
  </g>
</svg>