<?xml version="1.0" encoding="utf-8"?>
<svg viewBox="7.760067164897919 19.924495697021484 84.89932614564896 84.31208229064941" version="1.1" x="0px" y="0px" xmlns="http://www.w3.org/2000/svg">
  <title>Profile 0.2</title>
  <desc>Created with Sketch.</desc>
  <g stroke="none" stroke-width="1" fill="none" fill-rule="evenodd" transform="matrix(2.029836, 0, 0, 1.965294, -52.841652, -37.296959)">
    <g fill-rule="nonzero" fill="#000000">
      <path d="M57.6935413,57.4810519 C54.9724907,54.7151215 51.1865394,53 47,53 C38.7157288,53 32,59.7157288 32,68 C32,68.5522847 31.5522847,69 31,69 C30.4477153,69 30,68.5522847 30,68 C30,58.6111593 37.6111593,51 47,51 C51.9365488,51 56.3816504,53.1041356 59.487371,56.4644731 C58.8370685,56.7146467 58.2335456,57.0590859 57.6935413,57.4810519 L57.6935413,57.4810519 Z M47,49 C41.4771525,49 37,44.5228475 37,39 C37,33.4771525 41.4771525,29 47,29 C52.5228475,29 57,33.4771525 57,39 C57,44.5228475 52.5228475,49 47,49 Z M47,47 C51.418278,47 55,43.418278 55,39 C55,34.581722 51.418278,31 47,31 C42.581722,31 39,34.581722 39,39 C39,43.418278 42.581722,47 47,47 Z M62,72 C57.0294373,72 53,67.9705627 53,63 C53,58.0294373 57.0294373,54 62,54 C66.9705627,54 71,58.0294373 71,63 C71,67.9705627 66.9705627,72 62,72 Z M62,70 C65.8659932,70 69,66.8659932 69,63 C69,59.1340068 65.8659932,56 62,56 C58.1340068,56 55,59.1340068 55,63 C55,66.8659932 58.1340068,70 62,70 Z M65,62 C65.5522847,62 66,62.4477153 66,63 C66,63.5522847 65.5522847,64 65,64 L63.25,64 C63.1119288,64 63,64.1119288 63,64.25 L63,66 C63,66.5522847 62.5522847,67 62,67 C61.4477153,67 61,66.5522847 61,66 L61,64.25 C61,64.1119288 60.8880712,64 60.75,64 L59,64 C58.4477153,64 58,63.5522847 58,63 C58,62.4477153 58.4477153,62 59,62 L60.75,62 C60.8880712,62 61,61.8880712 61,61.75 L61,60 C61,59.4477153 61.4477153,59 62,59 C62.5522847,59 63,59.4477153 63,60 L63,61.75 C63,61.8880712 63.1119288,62 63.25,62 L65,62 Z"/>
    </g>
  </g>
</svg>