<?xml version="1.0" encoding="utf-8"?>
<svg version="1.1" x="0px" y="0px" viewBox="3.422818899154663 3.2802014350891113 27.368288040161133 27.311241149902344" style="enable-background:new 0 0 34 34;" xmlns="http://www.w3.org/2000/svg">
  <g>
    <path d="M26.6,7.4c-2.5-2.5-5.9-4-9.5-4c-3.6,0-7,1.4-9.5,4C3.3,11.7,2.3,18,5.1,23.3l1.8-0.9c-2.4-4.5-1.5-9.9,2.1-13.5   C11,6.7,13.9,5.5,17,5.5c3.1,0,6,1.2,8.1,3.4c2.2,2.2,3.4,5.1,3.4,8.1s-1.2,6-3.4,8.1c-3.6,3.6-9,4.4-13.5,2.1L10.8,29   c2,1,4.1,1.5,6.3,1.5c3.5,0,6.9-1.4,9.5-4c2.5-2.5,4-5.9,4-9.5S29.1,10,26.6,7.4z"/>
    <polygon points="19.5,21 21.5,21 21.5,12.5 13,12.5 13,14.5 18.1,14.5 6.9,25.6 8.4,27.1 19.5,15.9  "/>
  </g>
  <text x="0" y="49" fill="#000000" font-size="5px" font-weight="bold" font-family="'Helvetica Neue', Helvetica, Arial-Unicode, Arial, Sans-serif" style="white-space: pre;">Created by Lucas Almeida</text>
  <text x="0" y="54" fill="#000000" font-size="5px" font-weight="bold" font-family="'Helvetica Neue', Helvetica, Arial-Unicode, Arial, Sans-serif" style="white-space: pre;">from the Noun Project</text>
</svg>