<?xml version="1.0" encoding="utf-8"?>
<svg version="1.1" x="0px" y="0px" viewBox="-179.7 -74.7 49.6 49.7" style="enable-background:new -205 -100 100 100;" xmlns="http://www.w3.org/2000/svg">
  <g>
    <path d="M-131.6-53.6l-3.4-0.6c-0.7-0.1-1.3-0.7-1.5-1.3c-0.3-1-0.7-2-1.1-2.9c-0.3-0.6-0.3-1.4,0.2-2l2.1-2.8    c0.5-0.7,0.4-1.7-0.2-2.3l-1.6-1.7l-1.6-1.7c-0.6-0.6-1.6-0.7-2.3-0.2l-2.8,2c-0.6,0.4-1.4,0.5-2,0.1c-0.9-0.5-1.8-0.9-2.8-1.2    c-0.7-0.2-1.2-0.8-1.3-1.5l-0.5-3.5c-0.1-0.9-0.9-1.5-1.7-1.5l-2.3,0l-2.3,0c-0.9,0-1.6,0.6-1.8,1.5l-0.6,3.4    c-0.1,0.7-0.7,1.3-1.4,1.5c-1,0.3-2,0.7-3,1.2c-0.6,0.3-1.4,0.3-2-0.2l-2.8-2.1c-0.7-0.5-1.7-0.4-2.3,0.2l-1.7,1.6l-1.7,1.6    c-0.6,0.6-0.7,1.6-0.2,2.3l2,2.9c0.4,0.6,0.4,1.4,0.1,2c-0.5,0.9-0.9,1.9-1.2,2.9c-0.2,0.7-0.8,1.2-1.5,1.3l-3.4,0.5    c-0.8,0.1-1.5,0.9-1.5,1.7l0,2.3l0,2.3c0,0.9,0.6,1.6,1.5,1.8l3.4,0.6c0.7,0.1,1.3,0.6,1.5,1.3c0.3,1,0.7,2,1.1,2.9    c0.3,0.6,0.3,1.4-0.2,2l-2.1,2.8c-0.5,0.7-0.4,1.7,0.2,2.3l1.6,1.7l1.6,1.7c0.6,0.6,1.6,0.7,2.3,0.2l2.9-2c0.6-0.4,1.4-0.4,2-0.1    c0.9,0.5,1.9,0.9,2.9,1.2c0.7,0.2,1.2,0.8,1.3,1.5l0.5,3.4c0.1,0.9,0.9,1.5,1.7,1.5l2.3,0l2.3,0c0.9,0,1.6-0.6,1.8-1.5l0.6-3.4    c0.1-0.7,0.7-1.3,1.3-1.5c0.9-0.3,1.9-0.7,2.7-1.1c0.6-0.3,1.4-0.3,2,0.2l2.8,2.1c0.7,0.5,1.7,0.4,2.3-0.2l1.7-1.6l1.7-1.6    c0.6-0.6,0.7-1.6,0.2-2.3l-2-2.8c-0.4-0.6-0.4-1.4-0.1-2c0.5-0.9,0.9-1.8,1.2-2.8c0.2-0.7,0.8-1.2,1.5-1.3l3.5-0.5    c0.9-0.1,1.5-0.9,1.5-1.7l0-2.3l0-2.3C-130.1-52.7-130.7-53.5-131.6-53.6z M-155-39.8c-5.6,0-10.2-4.6-10.2-10.2    s4.6-10.2,10.2-10.2s10.2,4.6,10.2,10.2S-149.4-39.8-155-39.8z"/>
  </g>
</svg>