<?xml version="1.0" encoding="utf-8"?>
<svg viewBox="9.228187561035156 46.14093780517578 481.54364013671875 425.3355712890625" xmlns="http://www.w3.org/2000/svg">
  <path fill="#000000" d="M 354.703 330.179 L 419.439 330.179 C 458.446 330.179 490.104 361.773 490.104 400.65 C 490.104 439.591 458.506 471.121 419.439 471.121 L 334.723 471.121 C 326.919 471.121 320.593 464.81 320.593 457.027 C 320.593 449.243 326.919 442.933 334.723 442.933 L 419.439 442.933 C 442.898 442.933 461.849 424.024 461.849 400.65 C 461.849 377.339 442.838 358.366 419.439 358.366 L 354.703 358.366 L 365.905 369.541 C 371.422 375.047 371.422 383.97 365.905 389.475 C 360.387 394.979 351.442 394.979 345.924 389.475 L 310.603 354.239 C 305.086 348.735 305.086 339.81 310.603 334.307 L 345.924 299.071 C 351.442 293.568 360.387 293.568 365.905 299.071 C 371.422 304.575 371.422 313.499 365.905 319.002 L 354.703 330.179 Z M 238.888 87.494 L 249.951 98.534 L 261.015 87.494 C 313.371 35.267 398.381 35.188 450.552 87.233 C 502.956 139.51 502.948 224.276 450.538 276.559 L 422.404 304.625 C 416.887 310.131 407.941 310.131 402.424 304.625 C 396.906 299.122 396.906 290.197 402.424 284.694 L 430.559 256.626 C 471.932 215.352 471.938 148.432 430.573 107.167 C 389.444 66.137 322.326 66.199 280.996 107.427 L 259.941 128.431 C 254.425 133.937 245.479 133.937 239.962 128.431 L 218.905 107.427 C 177.543 66.165 110.425 66.171 69.083 107.413 C 27.931 148.466 28.005 215.386 69.344 256.626 L 249.951 436.796 L 289.399 397.441 C 294.918 391.938 303.865 391.938 309.382 397.441 C 314.9 402.946 314.9 411.869 309.382 417.376 L 259.941 466.694 C 254.425 472.197 245.479 472.197 239.962 466.694 L 49.365 276.559 C -3 224.32 -3.095 139.552 49.102 87.483 C 101.481 35.231 186.487 35.223 238.888 87.494 Z"/>
  <text x="0" y="75" fill="#000000" font-size="5px" font-weight="bold" font-family="'Helvetica Neue', Helvetica, Arial-Unicode, Arial, Sans-serif" style="white-space: pre;" transform="matrix(3.511949, 0, 0, 3.310136, 76.689209, 42.551056)"> </text>
  <text x="0" y="80" fill="#000000" font-size="5px" font-weight="bold" font-family="'Helvetica Neue', Helvetica, Arial-Unicode, Arial, Sans-serif" style="white-space: pre;" transform="matrix(3.511949, 0, 0, 3.310136, 76.689209, 42.551056)"> </text>
</svg>