<?xml version="1.0" encoding="utf-8"?>
<svg viewBox="0 0 500 500" xmlns="http://www.w3.org/2000/svg">
  <g transform="matrix(104.710602, 0, 0, 128.886642, 0.694324, 3.859744)">
    <path class="fil0" d="M0.333 1.537l0.695 -0.145c0.04,-0.009 0.079,0.017 0.087,0.057 0.002,0.005 0.002,0.011 0.002,0.016l0 2.232 2.533 0 0 -2.232c0,-0.042 0.033,-0.075 0.074,-0.075 0.008,0 0.015,0.001 0.021,0.003l0.689 0.144 0.172 -0.797 -1.41 -0.559c-0.025,0.182 -0.11,0.345 -0.234,0.468 -0.149,0.148 -0.354,0.239 -0.579,0.239 -0.225,0 -0.429,-0.091 -0.578,-0.239 -0.125,-0.123 -0.21,-0.286 -0.234,-0.468l-1.41 0.559 0.172 0.797zm1.322 -1.535c0.244,0.043 0.487,0.064 0.728,0.063 0.243,0 0.486,-0.021 0.73,-0.063 0.013,-0.003 0.028,-0.002 0.043,0.003l1.564 0.619c0.033,0.014 0.053,0.049 0.045,0.085l-0.202 0.932c-0.008,0.04 -0.047,0.065 -0.087,0.057l-0.677 -0.142 0 2.215c0,0.041 -0.034,0.075 -0.075,0.075l-2.681 0c-0.041,0 -0.075,-0.034 -0.075,-0.075l0 -2.215 -0.676 0.142c-0.04,0.008 -0.08,-0.017 -0.088,-0.057l-0.202 -0.929c-0.009,-0.036 0.01,-0.074 0.045,-0.088l1.561 -0.617c0.009,-0.005 0.02,-0.007 0.031,-0.007 0.005,0 0.011,0.001 0.016,0.002zm1.393 0.161c-0.221,0.033 -0.442,0.051 -0.665,0.051 -0.222,0 -0.443,-0.017 -0.664,-0.051 0.02,0.148 0.089,0.28 0.191,0.381 0.121,0.121 0.289,0.195 0.473,0.195 0.185,0 0.353,-0.074 0.474,-0.195 0.102,-0.101 0.171,-0.233 0.191,-0.381z" style="fill-rule: nonzero;"/>
  </g>
</svg>