<?xml version="1.0" encoding="utf-8"?>
<svg version="1.1" x="0px" y="0px" preserveAspectRatio="none" viewBox="-10.879 23.033 88.326 54.479" xmlns="http://www.w3.org/2000/svg" style="fill: white;">
  <g transform="matrix(1, 0, 0, 1, -16.879133, 0)">
    <path d="M49.991,23.033 L50.51,23.064 L51.023,23.281 L93.023,48.281 C94.326,49.057 94.326,50.943 93.023,51.719 L51.023,76.718 C49.69,77.512 48,76.551 48,75 L48,53.518 L9.023,76.718 C7.69,77.512 6,76.551 6,75 L6,25 C6.056,24.11 6.566,23.308 7.481,23.067 L7.991,23.033 L8.51,23.064 L9.023,23.281 L48,46.482 L48,25 C48.056,24.11 48.566,23.308 49.481,23.067 L49.991,23.033 z" fill="white"/>
  </g>
</svg>
